<?xml version="1.0" encoding="utf-8"?>
<!-- Generator: Adobe Illustrator 17.0.0, SVG Export Plug-In . SVG Version: 6.00 Build 0)  -->
<!DOCTYPE svg PUBLIC "-//W3C//DTD SVG 1.1//EN" "http://www.w3.org/Graphics/SVG/1.1/DTD/svg11.dtd">
<svg version="1.1" id="Layer_1" xmlns="http://www.w3.org/2000/svg" xmlns:xlink="http://www.w3.org/1999/xlink" x="0px" y="0px"
	 width="258px" height="376.3px" viewBox="0 0 258 376.3" enable-background="new 0 0 258 376.3" xml:space="preserve">
<path d="M32.9,160.1c6.8-16,13.5-32.2,20.2-48s13.4-31.8,20.2-47.8l1.7-6.2l1.7,6.1c6.8,16.1,13.5,32.2,20.2,48s13.4,32,20.2,48h8.1
	h7.3h8.1c6.8-16,13.5-32.2,20.2-48s13.4-31.8,20.2-47.8l1.7-6.2l1.7,6.1c6.8,16.1,13.5,32.2,20.2,48s13.4,32,20.2,48h15.4
	c-9.6-24-19.2-45.6-28.7-68.1s-19.1-45.2-28.7-68c-9.6,22.7-19.2,45.3-28.7,67.8c-8.3,19.7-16.7,39.4-25.1,59.2
	c-8.4-19.8-16.8-39.6-25.1-59.3c-9.5-22.5-19.1-45.1-28.7-67.8C65.6,46.8,56,69.7,46.5,92.2s-19.1,44.1-28.7,68.1h15.1V160.1
	L32.9,160.1z"/>
<path d="M121,288.2c-0.7-1.5-1.5-2.9-2.1-4.4s-1.4-2.9-2.1-4.4h15.4c3.6,7.8,7.4,15.6,11.6,23.4c4.1,7.8,7.6,15.8,10.3,23.8
	c2.7-8,6.1-16,10.3-23.8c4.1-7.8,8-15.7,11.6-23.4h15.4c-6.3,12.4-12.5,24.6-18.6,36.9c-6.1,12.2-12.3,24.5-18.6,36.9
	c-4.2-8.4-8.4-16.7-12.6-24.9c-4.2-8.2-8.4-16.5-12.6-24.9c-4.2,8.4-8.4,16.7-12.6,24.9c-4.2,8.2-8.4,16.5-12.6,24.9
	c-6.3-12.4-12.5-24.6-18.6-36.9c-6.1-12.2-12.3-24.5-18.6-36.9H82c3.6,7.8,7.4,15.6,11.6,23.4c4.1,7.8,7.6,15.8,10.3,23.8
	c2.2-6.7,5-13.2,8.2-19.6C115.1,300.9,118.1,294.5,121,288.2z"/>
<path d="M142.7,218.4c0-4.9,1-9.6,2.9-14.1c1.9-4.4,4.5-8.3,7.9-11.6c3.3-3.3,7.3-5.9,11.8-7.8s9.4-2.9,14.5-2.9
	c5.2,0,10.1,1,14.6,2.9c4.6,1.9,8.5,4.5,11.9,7.8c3.3,3.3,6,7.1,7.9,11.6c1.9,4.4,2.9,9.1,2.9,14.1c0,5.1-1,9.8-2.9,14.2
	s-4.5,8.2-7.9,11.6c-3.3,3.3-7.3,6-11.9,7.9c-4.6,1.9-9.5,2.9-14.6,2.9c-5.2,0-10-1-14.5-2.9s-8.4-4.5-11.8-7.9
	c-3.3-3.3-6-7.2-7.9-11.6S142.7,223.5,142.7,218.4z M158.1,218.6c0,3,0.6,5.7,1.7,8.3c1.1,2.6,2.6,4.9,4.5,6.8s4.2,3.4,6.8,4.5
	s5.4,1.7,8.3,1.7c3,0,5.7-0.6,8.3-1.7s4.9-2.6,6.9-4.5s3.5-4.2,4.6-6.8s1.7-5.4,1.7-8.3c0-3-0.6-5.7-1.7-8.3
	c-1.1-2.6-2.7-4.9-4.6-6.9c-2-2-4.3-3.5-6.9-4.6c-2.6-1.1-5.4-1.7-8.3-1.7c-3,0-5.7,0.6-8.3,1.7s-4.8,2.7-6.8,4.6
	c-1.9,2-3.4,4.3-4.5,6.9C158.6,212.9,158.1,215.7,158.1,218.6z"/>
<g id="Layer_2_1_">
	<g id="Layer_2">
		<path d="M76.7,242.3c-2.4,0-4.7-0.5-7-1.3c-0.3-0.1-0.5-0.2-0.8-0.3c-2.6-1-4.9-2.6-7-4.7s-3.7-4.7-4.7-7.4c0-0.1,0-0.5-0.1-0.5
			h12.8h15H97h16.6c0.5-3,0.7-4.4,0.6-6.8c0-2.7-0.4-5.2-1-7.8c-0.5-2-1.1-3.9-1.9-5.9c-1.9-4.6-4.7-8.7-8.3-12.4
			c-3.7-3.7-7.8-6.4-12.3-8.2c-1.9-0.8-3.9-1.4-5.9-1.8c-2.6-0.6-5.3-1-8-1c-2.4,0-4.7,0.2-7,0.6s-4.5,1.1-6.7,2
			c-4.5,1.8-8.5,4.4-12,7.9c-3.6,3.6-6.2,7.6-8,12.1c-0.9,2.2-1.5,4.5-2,6.8c-0.4,2.3-0.7,4.6-0.7,7c0,2.7,0.3,5.4,0.9,8
			c0.4,2,1,3.9,1.8,5.9c1.8,4.5,4.6,8.7,8.3,12.3c3.7,3.7,7.8,6.4,12.4,8.3c2,0.8,3.9,1.4,5.9,1.9c2.7,0.6,5.1,1,7.7,1
			c2.4,0,3.7-0.2,6.7-0.7v-16.4C81.3,241.9,79.4,242.3,76.7,242.3z M57.2,213.6c1-2.6,2.6-5.3,4.7-7.4c2.1-2.1,4.5-3.9,7.1-4.9
			c0.3-0.1,0.6-0.3,0.9-0.4c2.3-0.8,4.7-1.3,7.2-1.4c2.7,0,5.3,0.4,7.8,1.4c0.1,0,0.2,0,0.2,0.1c2.6,1,5,2.6,7.1,4.7
			s3.7,5.2,4.7,7.8c0.1,0.3,0.2-1.4,0.3,1.6H84.9h-15H57C57,212.1,57.1,213.9,57.2,213.6z"/>
	</g>
</g>
</svg>
